{
  "accessors": [
    {
      "name": "goosecan_1_0_positions",
      "componentType": 5126,
      "count": 23912,
      "min": [
        -1.5047999620437622,
        0,
        -0.8593000173568726
      ],
      "max": [
        1.5047999620437622,
        0.37529999017715454,
        0.8593000173568726
      ],
      "type": "VEC3",
      "bufferView": 0,
      "byteOffset": 0
    },
    {
      "name": "goosecan_1_0_normals",
      "componentType": 5126,
      "count": 23912,
      "min": [
        -0.9999871850013733,
        -0.9999990463256836,
        -0.9996148943901062
      ],
      "max": [
        0.9999871850013733,
        0.9999951720237732,
        0.996211588382721
      ],
      "type": "VEC3",
      "bufferView": 1,
      "byteOffset": 0
    },
    {
      "name": "goosecan_1_0_texcoords",
      "componentType": 5126,
      "count": 23912,
      "min": [
        0.0010000000474974513,
        0.004999999888241291
      ],
      "max": [
        0.9987000226974487,
        0.9968000054359436
      ],
      "type": "VEC2",
      "bufferView": 2,
      "byteOffset": 0
    },
    {
      "name": "goosecan_1_0_indices",
      "componentType": 5123,
      "count": 140382,
      "min": [
        0
      ],
      "max": [
        23911
      ],
      "type": "SCALAR",
      "bufferView": 3,
      "byteOffset": 0
    }
  ],
  "asset": {
    "generator": "obj2gltf",
    "version": "2.0"
  },
  "buffers": [
    {
      "name": "dayan1",
      "byteLength": 1813572,
      "uri": "data:application/octet-stream;base64,"
    }
  ],
  "bufferViews": [
    {
      "name": "bufferView_0",
      "buffer": 0,
      "byteLength": 286944,
      "byteOffset": 0,
      "byteStride": 12,
      "target": 34962
    },
    {
      "name": "bufferView_1",
      "buffer": 0,
      "byteLength": 286944,
      "byteOffset": 286944,
      "byteStride": 12,
      "target": 34962
    },
    {
      "name": "bufferView_2",
      "buffer": 0,
      "byteLength": 191296,
      "byteOffset": 573888,
      "byteStride": 8,
      "target": 34962
    },
    {
      "name": "bufferView_3",
      "buffer": 0,
      "byteLength": 280764,
      "byteOffset": 765184,
      "target": 34963
    },
    {
      "buffer": 0,
      "byteOffset": 1045948,
      "byteLength": 767624
    }
  ],
  "images": [
    {
      "name": "goosecan",
      "mimeType": "image/png",
      "bufferView": 4
    }
  ],
  "materials": [
    {
      "name": "Material",
      "pbrMetallicRoughness": {
        "baseColorTexture": {
          "index": 0
        },
        "baseColorFactor": [
          1,
          1,
          1,
          1
        ],
        "metallicFactor": 0,
        "roughnessFactor": 0.98
      },
      "emissiveFactor": [
        0,
        0,
        0
      ],
      "alphaMode": "OPAQUE",
      "doubleSided": false
    }
  ],
  "meshes": [
    {
      "name": "goosecan_1",
      "primitives": [
        {
          "attributes": {
            "POSITION": 0,
            "NORMAL": 1,
            "TEXCOORD_0": 2
          },
          "indices": 3,
          "material": 0,
          "mode": 4
        }
      ]
    }
  ],
  "nodes": [
    {
      "name": "goosecan",
      "mesh": 0
    }
  ],
  "samplers": [
    {
      "magFilter": 9729,
      "minFilter": 9986,
      "wrapS": 10497,
      "wrapT": 10497
    }
  ],
  "scene": 0,
  "scenes": [
    {
      "nodes": [
        0
      ]
    }
  ],
  "textures": [
    {
      "name": "goosecan",
      "sampler": 0,
      "source": 0
    }
  ]
}
