{
  "accessors": [
    {
      "name": "mallard_1_0_positions",
      "componentType": 5126,
      "count": 24212,
      "min": [
        -1.419600009918213,
        0,
        -0.6854000091552734
      ],
      "max": [
        1.419600009918213,
        0.527400016784668,
        0.6854000091552734
      ],
      "type": "VEC3",
      "bufferView": 0,
      "byteOffset": 0
    },
    {
      "name": "mallard_1_0_normals",
      "componentType": 5126,
      "count": 24212,
      "min": [
        -0.999991238117218,
        -0.9999999403953552,
        -0.9996588230133057
      ],
      "max": [
        0.999991238117218,
        0.9999920129776001,
        0.998926043510437
      ],
      "type": "VEC3",
      "bufferView": 1,
      "byteOffset": 0
    },
    {
      "name": "mallard_1_0_texcoords",
      "componentType": 5126,
      "count": 24212,
      "min": [
        0.0012000000569969416,
        0.002300000051036477
      ],
      "max": [
        0.9986000061035156,
        0.9994000196456909
      ],
      "type": "VEC2",
      "bufferView": 2,
      "byteOffset": 0
    },
    {
      "name": "mallard_1_0_indices",
      "componentType": 5123,
      "count": 142182,
      "min": [
        0
      ],
      "max": [
        24211
      ],
      "type": "SCALAR",
      "bufferView": 3,
      "byteOffset": 0
    }
  ],
  "asset": {
    "generator": "obj2gltf",
    "version": "2.0"
  },
  "buffers": [
    {
      "name": "dayan",
      "byteLength": 1584984,
      "uri": "data:application/octet-stream;base64,"
    }
  ],
  "bufferViews": [
    {
      "name": "bufferView_0",
      "buffer": 0,
      "byteLength": 290544,
      "byteOffset": 0,
      "byteStride": 12,
      "target": 34962
    },
    {
      "name": "bufferView_1",
      "buffer": 0,
      "byteLength": 290544,
      "byteOffset": 290544,
      "byteStride": 12,
      "target": 34962
    },
    {
      "name": "bufferView_2",
      "buffer": 0,
      "byteLength": 193696,
      "byteOffset": 581088,
      "byteStride": 8,
      "target": 34962
    },
    {
      "name": "bufferView_3",
      "buffer": 0,
      "byteLength": 284364,
      "byteOffset": 774784,
      "target": 34963
    },
    {
      "buffer": 0,
      "byteOffset": 1059148,
      "byteLength": 525833
    }
  ],
  "images": [
    {
      "name": "mallard",
      "mimeType": "image/png",
      "bufferView": 4
    }
  ],
  "materials": [
    {
      "name": "Material",
      "pbrMetallicRoughness": {
        "baseColorTexture": {
          "index": 0
        },
        "baseColorFactor": [
          1,
          1,
          1,
          1
        ],
        "metallicFactor": 0,
        "roughnessFactor": 0.98
      },
      "emissiveFactor": [
        0,
        0,
        0
      ],
      "alphaMode": "OPAQUE",
      "doubleSided": false
    }
  ],
  "meshes": [
    {
      "name": "mallard_1",
      "primitives": [
        {
          "attributes": {
            "POSITION": 0,
            "NORMAL": 1,
            "TEXCOORD_0": 2
          },
          "indices": 3,
          "material": 0,
          "mode": 4
        }
      ]
    }
  ],
  "nodes": [
    {
      "name": "mallard",
      "mesh": 0
    }
  ],
  "samplers": [
    {
      "magFilter": 9729,
      "minFilter": 9986,
      "wrapS": 10497,
      "wrapT": 10497
    }
  ],
  "scene": 0,
  "scenes": [
    {
      "nodes": [
        0
      ]
    }
  ],
  "textures": [
    {
      "name": "mallard",
      "sampler": 0,
      "source": 0
    }
  ]
}
