<?xml version="1.0" encoding="iso-8859-1"?>
<!-- Generator: Adobe Illustrator 19.0.0, SVG Export Plug-In . SVG Version: 6.00 Build 0)  -->
<svg version="1.1" id="Capa_1" xmlns="http://www.w3.org/2000/svg" xmlns:xlink="http://www.w3.org/1999/xlink" x="0px" y="0px"
	 viewBox="0 0 512.002 512.002" style="enable-background:new 0 0 512.002 512.002;" xml:space="preserve">
<g>
	<g>
		<path d="M392.26,139.583h-38.832c-2.028,0-3.973,0.807-5.406,2.241c-1.433,1.435-2.237,3.381-2.234,5.409
			c0.028,20.658-7.429,40.595-20.996,56.137c-13.442,15.399-31.924,25.466-52.041,28.346c-11.318,1.62-19.987,11.057-20.61,22.441
			c-0.359,6.552,2.023,13.044,6.535,17.809c4.512,4.765,10.863,7.498,17.425,7.498h26.73c3.666,22.616,23.324,39.941,46.959,39.941
			h47.13c23.911,0,46.498-8.587,64.253-24.293c13.072,8.259,24.288,19.502,32.451,33.077c1.407,2.339,3.916,3.704,6.548,3.704
			c0.678,0,1.365-0.091,2.042-0.278c3.308-0.918,5.597-3.929,5.597-7.362v-69.12C507.811,191.419,455.975,139.583,392.26,139.583z
			 M396.92,304.126h-47.13c-15.18,0-27.938-10.527-31.38-24.661h89.066c13.553,0,26.794,2.799,38.989,7.957
			C432.289,298.248,415.06,304.126,396.92,304.126z M492.532,301.451c-8.079-8.71-17.436-16.098-27.673-21.944
			c-0.617-0.477-1.29-0.845-1.995-1.107c-16.78-9.154-35.804-14.216-55.389-14.216H276.1c-2.418,0-4.666-0.968-6.33-2.724
			c-1.662-1.756-2.505-4.053-2.372-6.468c0.226-4.132,3.388-7.559,7.518-8.151c23.738-3.398,45.539-15.267,61.387-33.423
			c14.321-16.405,22.869-36.957,24.485-58.555h31.472c55.29,0,100.272,44.981,100.272,100.271V301.451z"/>
	</g>
</g>
<g>
	<g>
		<path d="M311.379,114.288h-36.67c-4.22,0-7.64,3.421-7.64,7.64c0,4.219,3.42,7.64,7.64,7.64h36.67
			c5.897,0,10.695,4.798,10.695,10.695s-4.798,10.695-10.695,10.695H173.869c-24.432,0-44.31,19.877-44.31,44.309
			c0,24.432,19.878,44.309,44.31,44.309h3.055c4.22,0,7.64-3.421,7.64-7.64c0-4.219-3.42-7.64-7.64-7.64h-3.055
			c-16.008,0-29.03-13.022-29.03-29.029c0-16.007,13.022-29.029,29.03-29.029h35.719c3.693,24.19,24.637,42.781,49.842,42.781
			c25.205,0,46.149-18.591,49.842-42.781h2.107c14.323,0,25.974-11.652,25.974-25.974
			C337.353,125.941,325.702,114.288,311.379,114.288z M225.125,166.237h22.171c0.607,10.076,4.214,19.584,10.196,27.442
			C241.602,192.81,228.487,181.342,225.125,166.237z M275.029,190.075c-7.138-5.987-11.591-14.537-12.399-23.838h31.105
			C291.406,176.699,284.396,185.414,275.029,190.075z"/>
	</g>
</g>
<g>
	<g>
		<path d="M376.762,183.552c-3.942-1.518-8.359,0.45-9.873,4.388l-7.64,19.862c-1.515,3.938,0.449,8.359,4.388,9.873
			c0.903,0.347,1.829,0.511,2.74,0.511c3.07,0,5.964-1.863,7.133-4.9l7.64-19.862C382.665,189.487,380.701,185.066,376.762,183.552z
			"/>
	</g>
</g>
<g>
	<g>
		<path d="M395.456,503.635l-15.642-163.773c-0.4-4.201-4.125-7.289-8.331-6.879c-4.201,0.401-7.279,4.132-6.879,8.331
			l13.884,145.361l-32.763-27.158c-2.827-2.345-6.924-2.345-9.75,0l-42.127,34.92l-20.823-17.261
			c-3.247-2.693-8.064-2.243-10.758,1.005c-2.693,3.248-2.242,8.065,1.006,10.758l25.699,21.303c2.827,2.345,6.924,2.345,9.75,0
			l42.127-34.92l42.127,34.92c1.401,1.161,3.131,1.758,4.876,1.758c1.22,0,2.449-0.292,3.574-0.888
			C394.16,509.665,395.751,506.713,395.456,503.635z"/>
	</g>
</g>
<g>
	<g>
		<path d="M252.724,460.522c-2.693-3.248-7.508-3.698-10.757-1.005l-42.126,34.92l-42.127-34.92c-2.827-2.345-6.924-2.345-9.75,0
			l-42.127,34.92l-42.127-34.92c-2.827-2.345-6.924-2.345-9.75,0l-32.764,27.158l17.438-182.566
			c0.402-4.201-2.678-7.931-6.879-8.331c-4.202-0.405-7.931,2.679-8.331,6.878L4.227,503.633c-0.294,3.078,1.297,6.031,4.03,7.479
			C9.382,511.708,10.61,512,11.831,512c1.744,0,3.476-0.597,4.876-1.758l42.127-34.92l42.127,34.92c2.827,2.345,6.924,2.345,9.75,0
			l42.127-34.92l42.127,34.92c2.827,2.345,6.924,2.345,9.75,0l47.002-38.962C254.966,468.588,255.418,463.771,252.724,460.522z"/>
	</g>
</g>
<g>
	<g>
		<path d="M356.432,119.644C337.316,49.199,272.924,0,199.841,0H42.469c-3.073,0-5.846,1.841-7.04,4.672
			c-1.194,2.832-0.575,6.102,1.571,8.302l38.37,39.342L8.78,81.31c-2.882,1.255-4.701,4.146-4.585,7.287
			c0.117,3.14,2.145,5.889,5.112,6.928l37.374,13.083c-4.314,12.329-7.126,25.155-8.376,38.234L26.156,274.034
			c-0.402,4.201,2.678,7.931,6.879,8.331c0.247,0.023,0.491,0.036,0.735,0.036c3.891,0,7.219-2.961,7.596-6.913l12.149-127.191
			c1.364-14.275,4.781-28.215,10.157-41.432c0.787-1.938,0.747-4.114-0.113-6.02c-0.861-1.907-2.465-3.378-4.439-4.068
			l-26.375-9.232l58.87-25.633l21.355-9.298c3.869-1.685,5.639-6.186,3.955-10.054c-1.685-3.869-6.186-5.64-10.055-3.955
			l-16.518,7.193L60.592,15.28h139.25c66.201,0,124.531,44.561,141.845,108.366c1.105,4.073,5.307,6.477,9.374,5.372
			C355.132,127.913,357.537,123.716,356.432,119.644z"/>
	</g>
</g>
<g>
</g>
<g>
</g>
<g>
</g>
<g>
</g>
<g>
</g>
<g>
</g>
<g>
</g>
<g>
</g>
<g>
</g>
<g>
</g>
<g>
</g>
<g>
</g>
<g>
</g>
<g>
</g>
<g>
</g>
</svg>
