<svg height="511pt" viewBox="0 0 511.99866 511" width="511pt" xmlns="http://www.w3.org/2000/svg"><path d="m256.019531 120.484375c-74.429687 0-134.980469 60.554687-134.980469 134.984375v61.992188c0 74.429687 60.550782 134.984374 134.980469 134.984374 74.429688 0 134.984375-60.554687 134.984375-134.984374v-61.992188c0-74.429688-60.554687-134.984375-134.984375-134.984375zm91.039063 82.730469-31.042969 31.042968-44.996094-44.996093v-37.703125c32.515625 4.667968 60.269531 24.289062 76.039063 51.65625zm13.949218 52.253906v61.992188c0 7.386718-.769531 14.59375-2.226562 21.554687l-27.769531-27.765625v-49.570312l27.769531-27.765626c1.457031 6.960938 2.226562 14.167969 2.226562 21.554688zm-104.988281 100.773438-44.992187-44.992188v-49.570312l44.992187-44.992188 44.996094 44.992188v49.570312zm-14.996093-204.683594v37.703125l-44.996094 44.996093-31.042969-31.042968c15.769531-27.367188 43.523437-46.988282 76.039063-51.65625zm-89.988282 165.902344v-61.992188c0-7.386719.769532-14.59375 2.226563-21.554688l27.769531 27.765626v49.570312l-27.769531 27.765625c-1.457031-6.960937-2.226563-14.167969-2.226563-21.554687zm13.949219 52.253906 31.042969-31.042969 44.996094 44.992187v37.707032c-32.515626-4.671875-60.269532-24.289063-76.039063-51.65625zm106.035156 51.65625v-37.707032l44.996094-44.992187 31.042969 31.042969c-15.769532 27.367187-43.523438 46.984375-76.039063 51.65625zm0 0"/><path d="m425.773438 63.113281c-28.992188-6.0625-61.066407-1.800781-90.007813 14.445313-1.574219-.707032-3.160156-1.394532-4.753906-2.058594v-.007812c0-41.351563-33.640625-74.992188-74.992188-74.992188-41.347656 0-74.992187 33.640625-74.992187 74.992188v.007812c-2.1875.914062-4.355469 1.871094-6.503906 2.863281-28.878907-16.660156-61.472657-21.515625-91.425782-15.25-39.484375 7.949219-70.277344 36.535157-81.554687 71.351563-8.808594 27.175781 21.90625 51.351562 46.414062 34.53125l1.371094-.953125c15.507813-10.78125 28.25-4.820313 32.179687.546875-13.085937 26.175781-20.464843 55.679687-20.464843 86.878906v61.992188c0 5.089843.199219 10.136718.582031 15.128906-18.164062 21.628906-28.828125 48.269531-30.347656 75.597656-2.496094 39.484375 16.488281 79.398438 47.25 99.335938 14.1875 9.199218 33.074218 5.121093 42.234375-9.015626 9.078125-14.003906 2.613281-28.078124 2.566406-28.453124-1.523437-4.226563-2.128906-8.210938-2.105469-11.851563 35.042969 33.574219 82.550782 54.234375 134.796875 54.234375 52.246094 0 99.757813-20.660156 134.796875-54.234375.027344 3.640625-.582031 7.621094-2.101562 11.847656-.054688.417969-6.550782 14.394531 2.5625 28.457031 9.164062 14.140626 28.046875 18.214844 42.234375 9.015626 30.765625-19.9375 49.746093-59.855469 47.25-99.339844-1.484375-26.679688-11.742188-53.4375-30.347657-75.59375.382813-4.992188.582032-10.039063.582032-15.128906v-61.992188c0-32.054688-7.78125-62.324219-21.542969-89.027344 7.324219-5.945312 21.578125-6.515625 33.253906 1.601563l1.453125 1.007812c15.339844 10.527344 36.164063 5.003907 44.480469-11.285156 3.710937-7.261719 4.371094-15.539063 1.855469-23.296875-11.253906-34.753906-45.296875-63.421875-84.722656-71.355469zm-169.753907-32.617187c21.367188 0 39.285157 14.972656 43.855469 34.96875-14.097656-3.253906-28.78125-4.972656-43.855469-4.972656s-29.753906 1.71875-43.851562 4.972656c4.566406-19.996094 22.488281-34.96875 43.851562-34.96875zm-223.8125 112.917968-1.300781.902344c-.226562.15625-.410156.097656-.480469.074219-.066406-.019531-.210937-.066406-.3125-.269531-.101562-.195313-.058593-.339844-.035156-.410156 8.285156-25.574219 31.441406-45.671876 58.992187-51.199219l.125-.027344c16.980469-3.558594 35.585938-2.496094 53.863282 4.148437-17.664063 12.601563-33.144532 28.066407-45.757813 45.71875-19.277343-14.722656-44.613281-13.171874-65.09375 1.0625zm29.007813 266.617188.007812-.132812c.652344-11.832032 3.589844-23.5625 8.589844-34.566407 6.308594 20.265625 15.855469 39.121094 28.015625 55.96875-7.507813 14.257813-8.707031 32.289063-2.71875 48.921875l.535156 1.484375c1.8125 5.128907-37.574219-22.351562-34.429687-71.675781zm194.804687 72.410156c-90.96875 0-164.976562-74.011718-164.976562-164.980468v-61.992188c0-90.972656 74.007812-164.980469 164.976562-164.980469 90.972657 0 164.980469 74.007813 164.980469 164.980469v61.992188c0 90.96875-74.007812 164.980468-164.980469 164.980468zm194.796875-72.542968.007813.132812c2.140625 33.515625-15.347657 60.472656-33.628907 72.320312-.058593.039063-.1875.121094-.402343.074219-.953125-.203125.042969-1.609375.144531-2.207031 5.984375-16.628906 4.78125-34.660156-2.722656-48.917969 12.160156-16.851562 21.707031-35.707031 28.019531-55.976562 4.988281 10.996093 7.929687 22.734375 8.582031 34.574219zm31.113282-265.777344c-.101563.203125-.246094.25-.316407.269531-.070312.023437-.253906.082031-.402343-.019531l-1.375-.957032c-23.464844-16.308593-50.253907-13.085937-65.273438-3.175781-.308594.199219-.609375.410157-.914062.613281-12.664063-17.371093-28.125-32.582031-45.722657-44.957031 17.628907-5.964843 35.339844-6.851562 51.757813-3.410156l.125.027344c28.695312 5.757812 54.257812 26.8125 62.15625 51.199219.019531.070312.066406.214843-.035156.410156zm0 0"/></svg>