<svg viewBox="0 -80 512.001 512" xmlns="http://www.w3.org/2000/svg"><path d="m111.402344 241h-96.402344c-8.285156 0-15 6.714844-15 15s6.714844 15 15 15h1.066406v65.335938c0 8.28125 6.714844 15 15 15h40.167969c30.417969 0 55.167969-24.75 55.167969-55.167969v-40.167969c0-8.285156-6.714844-15-15-15zm0 0" fill="#7fe881"/><path d="m312.234375 241h-40.167969c-8.285156 0-15 6.714844-15 15v80.335938c0 8.28125 6.71875 15 15 15h80.335938c8.285156 0 15-6.71875 15-15v-40.167969c0-30.417969-24.75-55.167969-55.167969-55.167969zm0 0" fill="#1fbf66"/><path d="m432.734375 112.46875h-87.691406c-8.28125 0-15 6.714844-15 15 0 8.28125 6.71875 15 15 15h.859375l5.644531 98.574219c-7.886719.445312-14.144531 6.960937-14.144531 14.957031 0 8.285156 6.714844 15 15 15h80.332031c43.707031 0 79.265625-35.558594 79.265625-79.265625s-35.558594-79.265625-79.265625-79.265625zm0 0" fill="#7fe881"/><path d="m191.734375 0c-96.863281 0-175.667969 78.804688-175.667969 175.667969v80.332031c0 8.285156 6.714844 15 15 15h321.332032c8.285156 0 15-6.714844 15-15v-80.332031c.003906-96.863281-78.800782-175.667969-175.664063-175.667969zm0 0" fill="#1fbf66"/><path d="m191.734375 0v271h160.664063c8.285156 0 15-6.714844 15-15v-80.332031c.003906-96.863281-78.800782-175.667969-175.664063-175.667969zm0 0" fill="#00884a"/><path d="m432.738281 190.667969c-3.949219 0-7.820312-1.597657-10.609375-4.386719-2.789062-2.800781-4.402344-6.671875-4.402344-10.613281 0-3.949219 1.613282-7.808594 4.402344-10.609375 2.789063-2.789063 6.660156-4.390625 10.609375-4.390625s7.808594 1.601562 10.601563 4.390625c2.789062 2.800781 4.398437 6.660156 4.398437 10.609375 0 3.941406-1.609375 7.8125-4.398437 10.613281-2.792969 2.789062-6.652344 4.386719-10.601563 4.386719zm0 0" fill="#552003"/><path d="m352.402344 160.515625h-71.675782l-31.503906-54.574219 35.78125-61.976562c4.144532-7.175782 1.6875-16.347656-5.488281-20.492188-7.175781-4.144531-16.347656-1.683594-20.492187 5.492188l-35.78125 61.976562h-63.015626l-35.78125-61.976562c-4.140624-7.175782-13.316406-9.636719-20.492187-5.492188-7.171875 4.144532-9.628906 13.316406-5.488281 20.492188l35.78125 61.976562-31.503906 54.574219h-71.675782c-8.285156 0-15 6.714844-15 15 0 8.28125 6.714844 15 15 15h80.335938c5.359375 0 10.308594-2.859375 12.988281-7.5l35.835937-62.074219h63.015626l35.835937 62.074219c2.679687 4.640625 7.632813 7.5 12.988281 7.5h80.335938c8.285156 0 15-6.71875 15-15 0-8.285156-6.714844-15-15-15zm0 0" fill="#fcdb2c"/><path d="m352.402344 160.515625h-71.675782l-31.503906-54.574219 35.78125-61.976562c4.144532-7.175782 1.6875-16.347656-5.488281-20.492188-7.175781-4.144531-16.347656-1.683594-20.492187 5.492188l-35.78125 61.976562h-31.507813v30h31.507813l35.835937 62.074219c2.679687 4.640625 7.632813 7.5 12.988281 7.5h80.335938c8.285156 0 15-6.71875 15-15 0-8.285156-6.714844-15-15-15zm0 0" fill="#ff9f04"/></svg>