<svg height="512pt" viewBox="0 -91 512.00109 512" width="512pt" xmlns="http://www.w3.org/2000/svg"><path d="m441.511719 79.664062c10.179687 0 18.464843-8.28125 18.464843-18.460937s-8.285156-18.460937-18.464843-18.460937c-10.179688 0-18.460938 8.28125-18.460938 18.460937s8.28125 18.460937 18.460938 18.460937zm0-21.921874c1.910156 0 3.464843 1.550781 3.464843 3.460937s-1.554687 3.460937-3.464843 3.460937c-1.90625 0-3.460938-1.550781-3.460938-3.460937s1.554688-3.460937 3.460938-3.460937zm0 0" fill="#a7b1c2"/><path d="m2.671875 196.367188c-7.660156 10.117187 2.394531 24.148437 14.453125 20.175781 5.1875-1.714844 11.851562-3.46875 18.894531-4.210938-22.464843 30.640625-27.902343 70.328125-29.035156 93.148438-.625 12.652343 9.367187 23.761719 22.574219 23.761719h26.253906c12.664062 0 23.355469-9.929688 24.34375-22.601563 1.410156-18.105469 5.183594-30.8125 8.101562-38.285156 1.046876-2.679688 3.996094-4.125 6.859376-3.359375 35.75 9.578125 70.101562 3.636718 88.066406-1.011719-3.113282 16.144531-3.839844 31.105469-3.820313 41.703125.019531 12.988281 10.585938 23.554688 23.554688 23.554688h31.945312c13.632813 0 24.761719-10.277344 25.890625-23.90625.757813-9.128907 2.160156-17.671876 4.171875-25.398438 2.136719-8.191406 9.535157-13.910156 18-13.910156 3.074219 0 6.0625-.097656 8.976563-.273438 4.402344 10.4375 9.195312 25.390625 10.777344 43.496094.996093 11.398438 10.355468 19.992188 21.769531 19.992188h32.210937c12.410156 0 22.328125-10.28125 21.835938-22.679688-.15625-3.964844-.425782-8.039062-.796875-12.113281-.378907-4.125-4.046875-7.171875-8.15625-6.78125-4.125.378906-7.160157 4.027343-6.78125 8.152343.347656 3.816407.601562 7.628907.746093 11.335938.15625 3.863281-2.949218 7.082031-6.847656 7.082031h-32.210937c-3.578125 0-6.511719-2.707031-6.824219-6.292969-1.550781-17.757812-5.90625-32.785156-10.273438-44.011718 17.796876-3.1875 32.207032-9.804688 43.886719-18.273438.058594-.042968.121094-.085937.179688-.128906 2.050781 5.230469 3.863281 10.765625 5.425781 16.554688 1.074219 4 5.1875 6.371093 9.191406 5.292968 3.996094-1.078125 6.367188-5.191406 5.289063-9.191406-2.179688-8.105469-4.839844-15.773438-7.917969-22.898438 27.1875-26.996093 35.054688-63.640624 38.582031-75.546874 4.03125-13.613282 11.96875-16.554688 44.695313-16.554688 25.90625 0 39.058594-20.394531 43.796875-35.082031h10.769531c6.8125 0 11.914062-6.257813 10.519531-12.925781-1.097656-5.269532-7.460937-32.753907-24.804687-56.765626-20.546875-28.445312-48.941406-41.511718-82.097656-37.792968-46.839844 5.253906-68.664063 35.128906-77.292969 51.695312-25.046875-24.148437-57.28125-40.75-92.617188-46.621094-.105469-.023437-.214843-.035156-.320312-.050781-10.65625-1.75-21.527344-2.523437-32.488281-2.253906-4.140626.105469-7.414063 3.542969-7.3125 7.683594.101562 4.078125 3.4375 7.316406 7.492187 7.316406.0625 0 .125 0 .1875-.003906 8.878906-.214844 17.691406.324219 26.359375 1.558593l.117188.203126-25.335938 43.8125-50.609375-.027344-16.972656-29.402344c10.382812-5.066406 21.425781-9.058594 32.996093-11.8125 4.027344-.957031 6.515626-5.003906 5.558594-9.03125-.957031-4.03125-4.996094-6.523438-9.03125-5.558594-72.273437 17.199219-125.824218 78.425782-133.253906 152.359375-.34375 3.425781-.144531 6.789063.511719 10.007813-9.476563 5.378906-20.972657 13.703125-30.183594 25.871094zm334.472656-128.597657c.144531-.460937 14.964844-46.136719 69.394531-52.242187 62.289063-6.980469 84.042969 57.3125 89.328126 77.578125h-51.429688c-4.144531 0-7.5 3.359375-7.5 7.5 0 4.144531 3.355469 7.5 7.5 7.5h29.949219c-3.753907 8.53125-11.773438 20.082031-27.703125 20.082031-44.402344 0-53.75 7.796875-60.394532 31.964844-15.578124 56.699218-45.023437 90.871094-103.363281 90.871094-15.292969 0-28.660156 10.335937-32.515625 25.132812-2.230468 8.558594-3.777344 17.957031-4.605468 27.9375-.480469 5.785156-5.183594 10.148438-10.941407 10.148438h-31.945312c-4.710938 0-8.546875-3.847657-8.554688-8.578126-.019531-12.328124 1.035157-30.964843 6.113281-50.03125 8.242188-17.203124 13.566407-24 13.707032-24.179687 2.597656-3.207031 2.117187-7.914063-1.082032-10.527344-3.207031-2.621093-7.933593-2.144531-10.554687 1.066407-.246094.300781-5.898437 7.308593-14.539063 24.972656-10.457031 3.371094-49.285156 14.183594-89.011718 3.546875-10.257813-2.753907-20.875 2.574219-24.710938 12.386719-3.285156 8.417968-7.53125 22.640624-9.085937 42.582031-.382813 4.914062-4.503907 8.761719-9.386719 8.761719h-26.253906c-4.359375 0-7.808594-3.640626-7.589844-8.015626 3.414062-68.933593 35.304688-95.722656 35.304688-95.722656 2.1875-2.179687 6.992187-6.777344 11.789062-12.21875 112.34375 16.042969 227.992188-15.792968 241.234375-23.625 6.28125-3.667968 10.03125-10.40625 10-17.558594-.246094-52.917968 15.332031-84.445312 16.847656-89.332031zm-108.683593 79.035157-21.117188 36.578124c-17.285156 2.28125-36.792969 3.914063-56.445312 4.414063-2.035157-3.5-14.324219-24.804687-23.660157-41.058594l25.332031-43.8125h50.558594c.019532 0 .042969.011719.054688.03125zm27.417968 27.949218 4.925782-8.5h27.78125c-11.089844 3.28125-22.070313 6.105469-32.707032 8.5zm30-135.15625c12.824219 7.386719 24.777344 16.640625 35.332032 27.554688-7.601563 19.1875-12.199219 39.613281-14.421876 60.136718l-45.511718-.027343-25.277344-43.847657 25.332031-43.816406zm-182.414062 16.183594 15.960937 27.695312-25.332031 43.8125h-39.332031c9.339843-27.714843 26.289062-52.617187 48.703125-71.507812zm-52.957032 86.511719h43.585938c5.363281 0 10.363281-2.886719 13.046875-7.53125l25.277344-43.785157c2.679687-4.644531 2.679687-10.417968 0-15.0625l-16.941407-29.34375c2.429688-1.675781 4.910157-3.285156 7.4375-4.828124l17.140626 29.691406c2.683593 4.644531 7.679687 7.53125 13.046874 7.53125h50.554688c5.367188 0 10.363281-2.886719 13.046875-7.53125l25.277344-43.785156c.878906-1.523438 1.464843-3.171876 1.769531-4.859376 3.816406.921876 7.597656 1.984376 11.332031 3.183594-2.804687 1.28125-5.207031 3.410156-6.792969 6.15625l-25.277343 43.785156c-2.683594 4.644532-2.683594 10.417969 0 15.0625l25.277343 43.78125c2.679688 4.644532 7.679688 7.53125 13.042969 7.53125h44.296875c-.144531 2.9375-.242187 5.984376-.292968 8.964844h-44.53125c-5.367188 0-10.363282 2.886719-13.046876 7.53125l-11.558593 20.019532c-3.289063.613281-6.589844 1.195312-9.902344 1.75l15.152344-26.253907c2.683593-4.644531 2.683593-10.414062 0-15.0625l-25.277344-43.78125c-2.679687-4.644531-7.679687-7.53125-13.042969-7.53125h-50.558594c-5.363281 0-10.359374 2.886719-13.042968 7.53125l-25.28125 43.785157c-2.679688 4.644531-2.679688 10.414062.003906 15.0625 11.136719 19.292968 16.480469 28.570312 19.410156 33.648437-7.242187-.058594-8.628906-.144531-10.320312-.191406l-16.730469-28.976563c-2.683594-4.648437-7.683594-7.53125-13.046875-7.53125h-44.835938c.511719-3.015625 1.105469-6.003906 1.78125-8.960937zm43.054688 23.960937c.023438 0 .046875.011719.058594.03125l11.921875 20.648438c-7.269531-.472656-40.953125-3.214844-47.539063-6.261719-5.894531-2.726563-9.820312-8.222656-10.644531-14.417969zm-54.464844 17.953125c3.488282 4.570313 8.117188 8.105469 13 10.277344-.933594.953125-1.761718 1.785156-2.792968 2.800781-10.847657-1.066406-21.722657.742188-30.476563 3.09375 6.492187-7.125 13.835937-12.410156 20.269531-16.171875zm0 0" fill="#a7b1c2"/></svg>